<svg width="351.35" height="76.301" viewBox="0 0 351.35 76.301" xmlns="http://www.w3.org/2000/svg"><g id="svgGroup" stroke-linecap="round" fill-rule="evenodd" font-size="9pt" stroke="#ffffff" stroke-width="0.25mm" fill="#ffffff" style="stroke:#ffffff;stroke-width:0.25mm;fill:#ffffff"><path d="M 10.4 67.65 L 10.4 75 L 0 75 L 0 0 L 10.4 0 L 10.4 32.25 Q 12.9 28.4 16.825 26 A 16.298 16.298 0 0 1 23.304 23.769 A 20.875 20.875 0 0 1 26 23.6 Q 33.3 23.6 39.275 27.15 Q 45.25 30.7 48.8 36.675 Q 52.35 42.65 52.35 49.95 Q 52.35 55.4 50.3 60.175 Q 48.25 64.95 44.625 68.575 Q 41 72.2 36.225 74.25 Q 31.45 76.3 26 76.3 A 19.19 19.19 0 0 1 21.081 75.694 A 15.663 15.663 0 0 1 16.825 73.875 Q 12.9 71.45 10.4 67.65 Z M 25.9 66.2 Q 30.25 66.2 33.85 64 Q 37.45 61.8 39.575 58.1 Q 41.7 54.4 41.7 49.95 Q 41.7 45.4 39.55 41.7 Q 37.4 38 33.8 35.825 Q 30.2 33.65 25.9 33.65 Q 21.55 33.65 18.25 35.85 Q 14.95 38.05 13.1 41.75 A 17.679 17.679 0 0 0 11.295 48.563 A 21.031 21.031 0 0 0 11.25 49.95 A 18.955 18.955 0 0 0 12.037 55.481 A 16.98 16.98 0 0 0 13.1 58.15 Q 14.95 61.85 18.25 64.025 Q 21.55 66.2 25.9 66.2 Z" id="0" vector-effect="non-scaling-stroke"/><path d="M 57.5 56.25 L 57.5 25 L 67.9 25 L 67.9 53.7 Q 67.9 57.05 69.55 59.8 Q 71.2 62.55 73.95 64.175 Q 76.7 65.8 80 65.8 A 11.872 11.872 0 0 0 84.673 64.886 A 11.422 11.422 0 0 0 86.075 64.175 Q 88.8 62.55 90.425 59.8 Q 92.05 57.05 92.05 53.7 L 92.05 25 L 102.45 25 L 102.5 75 L 92.1 75 L 92.05 69.6 Q 89.5 72.7 85.7 74.5 Q 81.9 76.3 77.55 76.3 Q 72 76.3 67.45 73.6 Q 62.9 70.9 60.2 66.35 Q 57.5 61.8 57.5 56.25 Z" id="1" vector-effect="non-scaling-stroke"/><path d="M 122.9 75 L 112.5 75 L 112.5 25 L 122.9 25 L 122.9 30.3 Q 125.5 27.2 129.3 25.4 Q 133.1 23.6 137.5 23.6 Q 140.3 23.6 143.05 24.35 L 138.9 34.85 A 11.04 11.04 0 0 0 135.853 34.136 A 10.171 10.171 0 0 0 135 34.1 Q 131.7 34.1 128.95 35.725 Q 126.2 37.35 124.55 40.1 Q 122.9 42.85 122.9 46.2 L 122.9 75 Z" id="2" vector-effect="non-scaling-stroke"/><path d="M 185.75 32.4 L 185.3 25 L 195.7 25 L 195.7 75 L 185.25 75 L 184.85 67.75 Q 182.65 71.6 178.9 73.95 A 15.309 15.309 0 0 1 172.849 76.109 A 19.88 19.88 0 0 1 170.05 76.3 Q 164.55 76.3 159.7 74.225 Q 154.85 72.15 151.175 68.45 Q 147.5 64.75 145.45 59.925 A 26.167 26.167 0 0 1 143.402 49.896 A 29.869 29.869 0 0 1 143.4 49.55 Q 143.4 44.2 145.4 39.475 Q 147.4 34.75 150.95 31.2 Q 154.5 27.65 159.175 25.625 Q 163.85 23.6 169.2 23.6 A 20.373 20.373 0 0 1 174.631 24.299 A 17.081 17.081 0 0 1 178.825 26.075 Q 183 28.55 185.75 32.4 Z M 169.8 66.25 Q 174.2 66.25 177.5 64.075 Q 180.8 61.9 182.625 58.2 A 17.869 17.869 0 0 0 184.405 51.387 A 21.318 21.318 0 0 0 184.45 50 A 19.342 19.342 0 0 0 183.763 44.77 A 16.932 16.932 0 0 0 182.6 41.75 Q 180.75 38.05 177.475 35.875 A 13.033 13.033 0 0 0 171.543 33.79 A 16.525 16.525 0 0 0 169.8 33.7 Q 165.45 33.7 161.85 35.9 Q 158.25 38.1 156.15 41.8 A 16.261 16.261 0 0 0 154.052 49.72 A 19.127 19.127 0 0 0 154.05 50 A 16.361 16.361 0 0 0 155.078 55.843 A 15.33 15.33 0 0 0 156.225 58.225 Q 158.4 61.9 161.975 64.075 Q 165.55 66.25 169.8 66.25 Z" id="3" vector-effect="non-scaling-stroke"/><path d="M 231.6 45.35 L 248.8 75 L 236.8 75 L 224.5 53.8 L 216.45 63.4 L 216.45 75 L 206.05 75 L 206.05 0 L 216.45 0 L 216.45 47.25 L 235.05 25 L 248.65 25 L 231.6 45.35 Z" id="4" vector-effect="non-scaling-stroke"/><path d="M 292.45 67.65 L 292.45 75 L 282.05 75 L 282.05 0 L 292.45 0 L 292.45 32.25 Q 294.95 28.4 298.875 26 A 16.298 16.298 0 0 1 305.354 23.769 A 20.875 20.875 0 0 1 308.05 23.6 Q 315.35 23.6 321.325 27.15 Q 327.3 30.7 330.85 36.675 Q 334.4 42.65 334.4 49.95 Q 334.4 55.4 332.35 60.175 Q 330.3 64.95 326.675 68.575 Q 323.05 72.2 318.275 74.25 Q 313.5 76.3 308.05 76.3 A 19.19 19.19 0 0 1 303.131 75.694 A 15.663 15.663 0 0 1 298.875 73.875 Q 294.95 71.45 292.45 67.65 Z M 307.95 66.2 Q 312.3 66.2 315.9 64 Q 319.5 61.8 321.625 58.1 Q 323.75 54.4 323.75 49.95 Q 323.75 45.4 321.6 41.7 Q 319.45 38 315.85 35.825 Q 312.25 33.65 307.95 33.65 Q 303.6 33.65 300.3 35.85 Q 297 38.05 295.15 41.75 A 17.679 17.679 0 0 0 293.345 48.563 A 21.031 21.031 0 0 0 293.3 49.95 A 18.955 18.955 0 0 0 294.087 55.481 A 16.98 16.98 0 0 0 295.15 58.15 Q 297 61.85 300.3 64.025 Q 303.6 66.2 307.95 66.2 Z" id="6" vector-effect="non-scaling-stroke"/><path fill="#F13024" d="M 343.551 75.821 A 5.438 5.438 0 0 0 345.85 76.3 Q 348.15 76.3 349.75 74.7 A 5.5 5.5 0 0 0 350.79 73.277 A 5.442 5.442 0 0 0 351.35 70.8 A 6.283 6.283 0 0 0 351.35 70.73 A 5.243 5.243 0 0 0 349.75 66.95 A 5.5 5.5 0 0 0 348.327 65.91 A 5.442 5.442 0 0 0 345.85 65.35 A 6.552 6.552 0 0 0 345.76 65.351 A 5.213 5.213 0 0 0 341.975 66.95 A 6.367 6.367 0 0 0 341.963 66.963 A 5.289 5.289 0 0 0 340.4 70.8 A 6.703 6.703 0 0 0 340.4 70.836 A 5.345 5.345 0 0 0 341.975 74.7 A 5.328 5.328 0 0 0 343.551 75.821 Z" id="7" vector-effect="non-scaling-stroke"/></g></svg>